<svg xmlns="http://www.w3.org/2000/svg" viewBox="0 0 1100 650" role="img" aria-labelledby="title desc"><title id="title">Comença estret; amplia quan hi haja espai</title><desc id="desc">La graella de referència té una columna per defecte, dues a partir de 48rem i tres a partir de 68rem. Cal provar amplades intermèdies.</desc><rect width="1100" height="650" rx="24" fill="#fff"/><g font-family="Arial, sans-serif"><text x="40" y="52" font-size="15" fill="#4338ca" font-weight="700">LA PLAÇA / PROJECTE GUIAT</text><text x="40" y="96" font-size="30" fill="#172554" font-weight="700">Comença estret; amplia quan hi haja espai</text><text x="40" y="145" font-size="20" fill="#3730a3" font-weight="700">BASE · 1 columna</text><rect x="40" y="165" width="230" height="350" rx="16" fill="#eef2ff" stroke="none"/><rect x="55.0" y="185" width="200.0" height="40" rx="8" fill="#c7d2fe" stroke="none"/><text x="65.0" y="213" font-size="18" fill="#172554" font-weight="400">1</text><rect x="55.0" y="237" width="200.0" height="40" rx="8" fill="#c7d2fe" stroke="none"/><text x="65.0" y="265" font-size="18" fill="#172554" font-weight="400">2</text><rect x="55.0" y="289" width="200.0" height="40" rx="8" fill="#c7d2fe" stroke="none"/><text x="65.0" y="317" font-size="18" fill="#172554" font-weight="400">3</text><rect x="55.0" y="341" width="200.0" height="40" rx="8" fill="#c7d2fe" stroke="none"/><text x="65.0" y="369" font-size="18" fill="#172554" font-weight="400">4</text><rect x="55.0" y="393" width="200.0" height="40" rx="8" fill="#c7d2fe" stroke="none"/><text x="65.0" y="421" font-size="18" fill="#172554" font-weight="400">5</text><rect x="55.0" y="445" width="200.0" height="40" rx="8" fill="#c7d2fe" stroke="none"/><text x="65.0" y="473" font-size="18" fill="#172554" font-weight="400">6</text><text x="295" y="145" font-size="20" fill="#3730a3" font-weight="700">48rem · 2 columnes</text><rect x="295" y="165" width="320" height="350" rx="16" fill="#eef2ff" stroke="none"/><rect x="310.0" y="185" width="140.0" height="75" rx="8" fill="#c7d2fe" stroke="none"/><text x="320.0" y="213" font-size="18" fill="#172554" font-weight="400">1</text><rect x="460.0" y="185" width="140.0" height="75" rx="8" fill="#c7d2fe" stroke="none"/><text x="470.0" y="213" font-size="18" fill="#172554" font-weight="400">2</text><rect x="310.0" y="272" width="140.0" height="75" rx="8" fill="#c7d2fe" stroke="none"/><text x="320.0" y="300" font-size="18" fill="#172554" font-weight="400">3</text><rect x="460.0" y="272" width="140.0" height="75" rx="8" fill="#c7d2fe" stroke="none"/><text x="470.0" y="300" font-size="18" fill="#172554" font-weight="400">4</text><rect x="310.0" y="359" width="140.0" height="75" rx="8" fill="#c7d2fe" stroke="none"/><text x="320.0" y="387" font-size="18" fill="#172554" font-weight="400">5</text><rect x="460.0" y="359" width="140.0" height="75" rx="8" fill="#c7d2fe" stroke="none"/><text x="470.0" y="387" font-size="18" fill="#172554" font-weight="400">6</text><text x="640" y="145" font-size="20" fill="#3730a3" font-weight="700">68rem · 3 columnes</text><rect x="640" y="165" width="420" height="350" rx="16" fill="#eef2ff" stroke="none"/><rect x="655.0" y="185" width="123.33333333333333" height="75" rx="8" fill="#c7d2fe" stroke="none"/><text x="665.0" y="213" font-size="18" fill="#172554" font-weight="400">1</text><rect x="788.3333333333333" y="185" width="123.33333333333333" height="75" rx="8" fill="#c7d2fe" stroke="none"/><text x="798.3333333333333" y="213" font-size="18" fill="#172554" font-weight="400">2</text><rect x="921.6666666666666" y="185" width="123.33333333333333" height="75" rx="8" fill="#c7d2fe" stroke="none"/><text x="931.6666666666666" y="213" font-size="18" fill="#172554" font-weight="400">3</text><rect x="655.0" y="272" width="123.33333333333333" height="75" rx="8" fill="#c7d2fe" stroke="none"/><text x="665.0" y="300" font-size="18" fill="#172554" font-weight="400">4</text><rect x="788.3333333333333" y="272" width="123.33333333333333" height="75" rx="8" fill="#c7d2fe" stroke="none"/><text x="798.3333333333333" y="300" font-size="18" fill="#172554" font-weight="400">5</text><rect x="921.6666666666666" y="272" width="123.33333333333333" height="75" rx="8" fill="#c7d2fe" stroke="none"/><text x="931.6666666666666" y="300" font-size="18" fill="#172554" font-weight="400">6</text><text x="40" y="565" font-size="21" fill="#172554" font-weight="400">48rem i 68rem són decisions del model; prova també entre punts.</text><text x="40" y="600" font-size="21" fill="#172554" font-weight="400">Afegeix una ruptura quan el contingut necessite una altra disposició.</text></g></svg>