<svg xmlns="http://www.w3.org/2000/svg" viewBox="0 0 1100 735" role="img" aria-labelledby="title desc"><title id="title">Dissenya també els estats oberts</title><desc id="desc">Navegació ampla amb desplegable i versió mòbil amb botó tancat o panell obert.</desc><defs><marker id="arrow" viewBox="0 0 10 10" refX="8" refY="5" markerWidth="7" markerHeight="7" orient="auto-start-reverse"><path d="M0 0L10 5L0 10Z" fill="#6945bd"/></marker></defs><rect x="0" y="0" width="1100" height="735" rx="24" fill="#faf8f2" stroke="none"/><g font-family="Arial, sans-serif"><text x="40" y="48" fill="#6945bd" font-size="15" font-weight="700">LA PLAÇA / APRENENTATGE AUTÒNOM</text><text x="40" y="95" fill="#302052" font-size="30" font-weight="700">Dissenya també els estats oberts</text><text x="40" y="145" fill="#302052" font-size="22" font-weight="700">ESCRIPTORI · navegació visible</text><rect x="40" y="170" width="1020" height="90" rx="16" fill="#302052" stroke="none"/><rect x="60" y="190" width="50" height="50" rx="16" fill="#e9ff86" stroke="none"/><text x="130" y="224" fill="white" font-size="26" font-weight="700">la plaça</text><text x="520" y="224" fill="white" font-size="22" font-weight="400">Inici</text><text x="650" y="224" fill="#e9ff86" font-size="22" font-weight="400">Programa⌄</text><text x="855" y="224" fill="white" font-size="22" font-weight="400">La teua visita</text><rect x="625" y="275" width="330" height="150" rx="16" fill="white" stroke="#ded8e6"/><text x="650" y="310" fill="#302052" font-size="20" font-weight="400">Tot el programa</text><text x="650" y="354" fill="#302052" font-size="20" font-weight="400">Horaris del dia</text><text x="650" y="397" fill="#302052" font-size="20" font-weight="400">Activitats</text><text x="40" y="340" fill="#302052" font-size="20" font-weight="400">Un summary obri el panell.</text><text x="40" y="376" fill="#302052" font-size="20" font-weight="400">Els enllaços tenen destins reals.</text><text x="40" y="480" fill="#302052" font-size="22" font-weight="700">MÒBIL · tancat</text><rect x="40" y="505" width="450" height="70" rx="16" fill="#302052" stroke="none"/><text x="60" y="550" fill="white" font-size="24" font-weight="700">la plaça</text><text x="340" y="550" fill="white" font-size="22" font-weight="400">☰ Menú</text><text x="570" y="480" fill="#302052" font-size="22" font-weight="700">MÒBIL · obert</text><rect x="570" y="505" width="490" height="70" rx="16" fill="#302052" stroke="none"/><text x="590" y="550" fill="white" font-size="24" font-weight="700">la plaça</text><text x="905" y="550" fill="white" font-size="22" font-weight="400">× Tanca</text><rect x="570" y="575" width="490" height="120" rx="16" fill="#f0ebf6" stroke="none"/><text x="590" y="610" fill="#302052" font-size="20" font-weight="400">Inici → Programa → La teua visita</text><text x="590" y="655" fill="#302052" font-size="18" font-weight="400">El submenú ocupa espai dins del panell.</text></g></svg>